# xmcd CD database file
#
# Track frame offsets:
#	150
#	11825
#	22185
#	32445
#	43000
#	53075
#	64585
#	76030
#	85685
#	95865
#	107752
#	119565
#	132845
#	145500
#	156345
#	168755
#	183855
#	196675
#	210400
#	221657
#	233320
#	246150
#	255905
#
# Disc length: 3589 seconds
#
# Revision: 0
# Processed by: cddbd v1.5.2PL0 Copyright (c) Steve Scherf et al.
# Submitted via: CDex 2.09
#
DISCID=240e0317
DTITLE=Slim Harpo - The Complete Excello Recordings Disk 2 - Buzzin' Harpo
DYEAR=1997
DGENRE=Blues
TTITLE0=Rainin' In My Heart (alt take)
TTITLE1=Snoopin' Around
TTITLE2=That's Alright Baby
TTITLE3=Lover's Confession
TTITLE4=Lover's Confession (alt take)
TTITLE5=I Love The Life I'm Living
TTITLE6=I Love The Life I'm Living (alt take)
TTITLE7=Buzzin'
TTITLE8=Harpo's Blues
TTITLE9=Little Queen Bee (Got A Brand New King)
TTITLE10=Little Sally Walker
TTITLE11=Boogie Chillun
TTITLE12=What's Goin' On Baby
TTITLE13=I Need Money (Keep Your Alibis)
TTITLE14=Blueberry Hill
TTITLE15=Sittin' Here Wondering (Wondering Blues)
TTITLE16=We're Two Of A Kind
TTITLE17=Still Rainin' In My Heart
TTITLE18=I'm Waiting On You Baby
TTITLE19=I'm Waiting On You Baby (alt take)
TTITLE20=You'll Never Find A Love (As True As Mine)
TTITLE21=Midnight Blues
TTITLE22=Lovin' You (The Way I Do)
EXTD=YEAR: 1997
EXTT0=
EXTT1=
EXTT2=
EXTT3=
EXTT4=
EXTT5=
EXTT6=
EXTT7=
EXTT8=
EXTT9=
EXTT10=
EXTT11=
EXTT12=
EXTT13=
EXTT14=
EXTT15=
EXTT16=
EXTT17=
EXTT18=
EXTT19=
EXTT20=
EXTT21=
EXTT22=
PLAYORDER=
